<svg width="251" height="66" viewBox="0 0 251 66" fill="none" xmlns="http://www.w3.org/2000/svg">
<g clip-path="url(#clip0)">
<path d="M65.3836 55.4883C64.876 54.4946 64.2129 53.5884 63.4194 52.8039C62.5073 51.8807 61.4501 51.1132 60.2898 50.532C57.4351 49.1046 53.6508 48.6791 49.2706 50.8266C45.9292 52.3767 42.3498 53.3507 38.6836 53.7074C52.3292 47.3855 58.2661 31.1987 51.9442 17.5532C45.6223 3.90758 29.4356 -2.02935 15.79 4.29257C2.1444 10.6145 -3.79254 26.8012 2.52938 40.4468C6.93687 49.9601 16.4146 56.0978 26.8985 56.2281L26.9181 56.2216C32.1952 59.0958 39.4169 58.4084 45.3815 57.8322C47.394 57.5945 49.4179 57.4679 51.4443 57.4525C55.8965 57.5638 55.6543 62.2778 55.615 62.8082C55.5204 63.496 56.0011 64.1302 56.6889 64.225C56.9677 64.2633 57.2511 64.2072 57.4941 64.0653L65.2526 59.5738C65.4639 59.4509 65.6347 59.2689 65.7437 59.05C66.1889 58.1596 66.0448 56.8436 65.3836 55.4883ZM9.85582 46.4726C5.21394 41.8465 2.60173 35.5645 2.59486 29.011C2.57751 22.4674 5.1668 16.1862 9.79035 11.5558H9.7969C19.4226 1.89756 35.0554 1.87121 44.7137 11.4969C54.372 21.1226 54.3983 36.7554 44.7726 46.4137C35.1468 56.072 19.5141 56.0983 9.85582 46.4726ZM58.044 60.844C57.697 58.4739 56.3614 55.0627 51.4967 54.9514C49.372 54.9632 47.2495 55.0943 45.1393 55.3442L43.1096 55.5341C45.6303 55.0183 48.0779 54.1937 50.3968 53.0789H50.3902C53.9389 51.3373 56.9375 51.6516 59.1833 52.7711C60.0964 53.2306 60.928 53.8366 61.6451 54.5651C62.2466 55.1562 62.7504 55.8391 63.1378 56.5882C63.321 56.927 63.4534 57.2911 63.5307 57.6685L58.044 60.844Z" fill="white"/>
<path d="M45.6799 18.3716C45.6786 18.3695 45.6775 18.3673 45.6762 18.3651C43.7259 15.4063 39.7464 14.5889 36.7877 16.539C34.0999 18.3107 33.141 21.7998 34.5457 24.6963L34.5654 24.788C36.3408 27.85 40.2607 28.8959 43.3257 27.1253C46.3931 25.3582 47.447 21.439 45.6799 18.3716ZM42.062 24.9451C40.1941 26.0069 37.8199 25.371 36.7325 23.5178L36.6998 23.4589C36.2207 22.5781 36.0966 21.5474 36.3528 20.578C36.9429 18.4903 39.1136 17.2761 41.2014 17.866C42.1604 18.137 42.9806 18.7625 43.4959 19.6156C44.5564 21.4852 43.9176 23.86 42.062 24.9451Z" fill="white"/>
<path d="M30.8596 25.3969C29.9021 24.4365 28.6016 23.8969 27.2455 23.8975C24.4215 23.8957 22.1306 26.1837 22.1288 29.0077C22.127 31.8317 24.4149 34.1226 27.239 34.1244C30.063 34.1262 32.3539 31.8383 32.3557 29.0143C32.3565 27.6578 31.8183 26.3565 30.8596 25.3969ZM29.0918 30.8442C28.0733 31.8712 26.4151 31.8779 25.3882 30.8595C24.3613 29.8409 24.3545 28.1827 25.373 27.1558C26.3916 26.1288 28.0497 26.1221 29.0766 27.1407C29.575 27.6352 29.8543 28.3091 29.8512 29.0111C29.852 29.6988 29.5786 30.3584 29.0918 30.8442Z" fill="white"/>
<path d="M19.9845 33.306L19.9256 33.234C18.1545 30.1672 14.2337 29.1151 11.1653 30.8835C8.09002 32.6444 7.0246 36.5648 8.7855 39.64C8.78878 39.6456 8.79205 39.6513 8.79516 39.6569C9.65319 41.1369 11.0679 42.212 12.7235 42.6425C14.3384 43.0764 16.0589 42.8602 17.5162 42.0401L17.5948 41.9943C20.636 40.2412 21.7014 36.3679 19.9845 33.306ZM16.3311 39.7944L16.2722 39.8271C14.4188 40.8238 12.1091 40.1828 11.0343 38.3736C10.5084 37.4889 10.3554 36.4315 10.6088 35.4339L10.6153 35.4404C10.8821 34.4395 11.5373 33.5864 12.4355 33.0703C14.3034 32.0087 16.6778 32.6444 17.765 34.4976L17.7977 34.5565C18.7921 36.4134 18.1451 38.7241 16.3311 39.7944Z" fill="white"/>
<path d="M43.3912 30.9751L43.4108 30.9359L43.3453 30.8966C40.2776 29.1229 36.3526 30.172 34.579 33.2397C34.5788 33.24 34.5787 33.2402 34.5785 33.2405C32.7705 36.2906 33.7774 40.2288 36.8275 42.0368C39.8776 43.8449 43.8158 42.8379 45.6238 39.7878V39.7485L45.6565 39.6896C47.4122 36.6543 46.4029 32.7714 43.3912 30.9751ZM43.5418 38.3278C43.5074 38.3801 43.4766 38.4348 43.4501 38.4915C42.1262 40.2104 39.6597 40.5306 37.9407 39.2069C36.5062 38.1021 36.0125 36.1598 36.7455 34.5041C37.816 32.6902 40.1265 32.0432 41.9833 33.0375L42.1143 33.1096C43.9069 34.1995 44.5266 36.5057 43.5219 38.3474L43.5418 38.3278Z" fill="white"/>
<path d="M27.2499 7.73224C23.7026 7.73093 20.826 10.6057 20.8247 14.1529C20.8241 15.8581 21.5017 17.4936 22.708 18.699C23.9106 19.9035 25.5432 20.5797 27.2453 20.5781C30.7927 20.5794 33.6692 17.7046 33.6705 14.1574C33.6718 10.6101 30.7972 7.73355 27.2499 7.73224ZM30.087 16.9446C28.5592 18.4851 26.0719 18.4952 24.5315 16.9674C23.7854 16.2274 23.3669 15.2193 23.3695 14.1682C23.367 13.1344 23.7771 12.1423 24.5087 11.4118C26.0365 9.87141 28.5238 9.86126 30.0643 11.3891C31.6047 12.9169 31.6148 15.4042 30.087 16.9446Z" fill="white"/>
<path d="M27.2499 37.4504C23.7026 37.4491 20.826 40.3239 20.8247 43.8711C20.8241 45.5763 21.5017 47.2118 22.708 48.4172C23.9106 49.6217 25.5432 50.2979 27.2453 50.2963C30.7927 50.2976 33.6692 47.4228 33.6705 43.8756C33.6718 40.3283 30.7972 37.4517 27.2499 37.4504ZM30.087 46.6563C28.5592 48.1967 26.0719 48.2068 24.5315 46.679C23.7854 45.939 23.3669 44.9309 23.3695 43.8799C23.367 42.8461 23.7771 41.854 24.5087 41.1235C26.0365 39.5831 28.5238 39.5729 30.0643 41.1007C31.6047 42.6285 31.6148 45.1159 30.087 46.6563Z" fill="white"/>
<path d="M17.6249 16.02C17.6105 16.0116 17.5961 16.0033 17.5817 15.9949C14.5596 14.2429 10.6909 15.2362 8.88682 18.2275C8.84148 18.2915 8.80204 18.3595 8.76897 18.4305C7.08271 21.4606 8.10917 25.2823 11.0867 27.0599L11.0802 27.0861L11.257 27.1843C14.3165 28.8831 18.173 27.8171 19.9256 24.7879C21.7114 21.7315 20.6813 17.8059 17.6249 16.02ZM17.7584 23.5243C16.6712 25.3775 14.2969 26.0133 12.4289 24.9516C10.5796 23.8646 9.94421 21.4951 11.0016 19.6287H10.9951L11.0278 19.5632C12.1335 17.7506 14.4794 17.1446 16.3246 18.1948C18.1801 19.2799 18.8189 21.6547 17.7584 23.5243Z" fill="white"/>
</g>
<path d="M132.53 32.412C133.274 32.652 133.838 33.024 134.222 33.528C134.618 34.032 134.816 34.656 134.816 35.4C134.816 36.516 134.378 37.398 133.502 38.046C132.638 38.682 131.408 39 129.812 39H123.35V26.4H129.47C130.982 26.4 132.152 26.688 132.98 27.264C133.82 27.828 134.24 28.632 134.24 29.676C134.24 30.288 134.09 30.828 133.79 31.296C133.502 31.764 133.082 32.136 132.53 32.412ZM126.86 31.44H129.128C130.136 31.44 130.64 31.026 130.64 30.198C130.64 29.37 130.136 28.956 129.128 28.956H126.86V31.44ZM129.668 36.444C130.7 36.444 131.216 36.006 131.216 35.13C131.216 34.278 130.7 33.852 129.668 33.852H126.86V36.444H129.668ZM142.127 32.268C143.411 32.28 144.377 32.568 145.025 33.132C145.673 33.696 145.997 34.5 145.997 35.544C145.997 36.636 145.619 37.488 144.863 38.1C144.119 38.712 143.063 39.012 141.695 39H136.547V29.244H139.949V32.268H142.127ZM146.825 29.244H150.227V39H146.825V29.244ZM141.353 36.66C142.217 36.66 142.649 36.27 142.649 35.49C142.649 35.106 142.541 34.824 142.325 34.644C142.109 34.464 141.785 34.368 141.353 34.356H139.949V36.642L141.353 36.66ZM157.439 39.162C156.359 39.162 155.393 38.946 154.541 38.514C153.689 38.082 153.023 37.482 152.543 36.714C152.075 35.946 151.841 35.076 151.841 34.104C151.841 33.132 152.075 32.268 152.543 31.512C153.023 30.744 153.689 30.15 154.541 29.73C155.393 29.298 156.359 29.082 157.439 29.082C158.543 29.082 159.497 29.322 160.301 29.802C161.105 30.27 161.675 30.924 162.011 31.764L159.365 33.114C158.921 32.238 158.273 31.8 157.421 31.8C156.809 31.8 156.299 32.004 155.891 32.412C155.495 32.82 155.297 33.384 155.297 34.104C155.297 34.836 155.495 35.412 155.891 35.832C156.299 36.24 156.809 36.444 157.421 36.444C158.273 36.444 158.921 36.006 159.365 35.13L162.011 36.48C161.675 37.32 161.105 37.98 160.301 38.46C159.497 38.928 158.543 39.162 157.439 39.162ZM172.188 31.962H169.056V39H165.654V31.962H162.504V29.244H172.188V31.962ZM177.491 29.082C179.111 29.082 180.347 29.454 181.199 30.198C182.051 30.93 182.477 32.058 182.477 33.582V39H179.291V37.74C178.799 38.688 177.839 39.162 176.411 39.162C175.655 39.162 175.001 39.03 174.449 38.766C173.897 38.502 173.477 38.148 173.189 37.704C172.913 37.248 172.775 36.732 172.775 36.156C172.775 35.232 173.129 34.518 173.837 34.014C174.545 33.498 175.637 33.24 177.113 33.24H179.057C178.997 32.208 178.307 31.692 176.987 31.692C176.519 31.692 176.045 31.77 175.565 31.926C175.085 32.07 174.677 32.274 174.341 32.538L173.189 30.216C173.729 29.856 174.383 29.58 175.151 29.388C175.931 29.184 176.711 29.082 177.491 29.082ZM177.365 37.002C177.761 37.002 178.109 36.906 178.409 36.714C178.709 36.522 178.925 36.24 179.057 35.868V35.022H177.581C176.585 35.022 176.087 35.352 176.087 36.012C176.087 36.312 176.201 36.552 176.429 36.732C176.657 36.912 176.969 37.002 177.365 37.002ZM192.401 33.888C193.517 34.26 194.075 35.028 194.075 36.192C194.075 37.068 193.733 37.758 193.049 38.262C192.365 38.754 191.357 39 190.025 39H184.535V29.244H189.773C191.045 29.244 192.029 29.466 192.725 29.91C193.433 30.354 193.787 30.978 193.787 31.782C193.787 32.25 193.667 32.664 193.427 33.024C193.187 33.384 192.845 33.672 192.401 33.888ZM187.595 33.168H189.467C190.259 33.168 190.655 32.874 190.655 32.286C190.655 31.722 190.259 31.44 189.467 31.44H187.595V33.168ZM189.719 36.786C190.547 36.786 190.961 36.486 190.961 35.886C190.961 35.286 190.559 34.986 189.755 34.986H187.595V36.786H189.719ZM200.374 35.526H199.222V39H195.802V29.244H199.222V32.844H200.446L202.84 29.244H206.458L203.182 33.924L206.674 39H202.642L200.374 35.526ZM211.61 29.082C213.23 29.082 214.466 29.454 215.318 30.198C216.17 30.93 216.596 32.058 216.596 33.582V39H213.41V37.74C212.918 38.688 211.958 39.162 210.53 39.162C209.774 39.162 209.12 39.03 208.568 38.766C208.016 38.502 207.596 38.148 207.308 37.704C207.032 37.248 206.894 36.732 206.894 36.156C206.894 35.232 207.248 34.518 207.956 34.014C208.664 33.498 209.756 33.24 211.232 33.24H213.176C213.116 32.208 212.426 31.692 211.106 31.692C210.638 31.692 210.164 31.77 209.684 31.926C209.204 32.07 208.796 32.274 208.46 32.538L207.308 30.216C207.848 29.856 208.502 29.58 209.27 29.388C210.05 29.184 210.83 29.082 211.61 29.082ZM211.484 37.002C211.88 37.002 212.228 36.906 212.528 36.714C212.828 36.522 213.044 36.24 213.176 35.868V35.022H211.7C210.704 35.022 210.206 35.352 210.206 36.012C210.206 36.312 210.32 36.552 210.548 36.732C210.776 36.912 211.088 37.002 211.484 37.002ZM220.04 39.162C219.464 39.162 218.978 38.97 218.582 38.586C218.186 38.202 217.988 37.716 217.988 37.128C217.988 36.528 218.18 36.042 218.564 35.67C218.96 35.298 219.452 35.112 220.04 35.112C220.64 35.112 221.132 35.298 221.516 35.67C221.9 36.042 222.092 36.528 222.092 37.128C222.092 37.716 221.894 38.202 221.498 38.586C221.114 38.97 220.628 39.162 220.04 39.162ZM229.89 29.082C230.778 29.082 231.582 29.292 232.302 29.712C233.034 30.12 233.61 30.708 234.03 31.476C234.462 32.232 234.678 33.114 234.678 34.122C234.678 35.13 234.462 36.018 234.03 36.786C233.61 37.542 233.034 38.13 232.302 38.55C231.582 38.958 230.778 39.162 229.89 39.162C228.75 39.162 227.844 38.82 227.172 38.136V42.492H223.752V29.244H227.01V30.216C227.646 29.46 228.606 29.082 229.89 29.082ZM229.17 36.444C229.77 36.444 230.262 36.24 230.646 35.832C231.03 35.412 231.222 34.842 231.222 34.122C231.222 33.402 231.03 32.838 230.646 32.43C230.262 32.01 229.77 31.8 229.17 31.8C228.57 31.8 228.078 32.01 227.694 32.43C227.31 32.838 227.118 33.402 227.118 34.122C227.118 34.842 227.31 35.412 227.694 35.832C228.078 36.24 228.57 36.444 229.17 36.444ZM250.45 34.086C250.45 35.61 249.94 36.81 248.92 37.686C247.9 38.55 246.442 39.054 244.546 39.198V42.492H241.522V39.216C239.614 39.06 238.15 38.55 237.13 37.686C236.122 36.81 235.618 35.61 235.618 34.086C235.618 32.574 236.116 31.398 237.112 30.558C238.12 29.718 239.59 29.226 241.522 29.082V25.644H244.546V29.082C246.454 29.238 247.912 29.736 248.92 30.576C249.94 31.416 250.45 32.586 250.45 34.086ZM238.876 34.086C238.876 34.878 239.08 35.484 239.488 35.904C239.908 36.312 240.586 36.576 241.522 36.696V31.584C240.574 31.704 239.896 31.962 239.488 32.358C239.08 32.754 238.876 33.33 238.876 34.086ZM244.546 36.696C245.494 36.576 246.172 36.312 246.58 35.904C247 35.484 247.21 34.878 247.21 34.086C247.21 33.33 247 32.754 246.58 32.358C246.172 31.962 245.494 31.71 244.546 31.602V36.696Z" fill="white"/>
<defs>
<clipPath id="clip0">
<rect width="66" height="66" fill="white"/>
</clipPath>
</defs>
</svg>
